<svg width="32" height="32" viewBox="0 0 32 32" fill="none" xmlns="http://www.w3.org/2000/svg">
<rect width="32" height="32" rx="16" fill="#A0AEB7"/>
<path fill-rule="evenodd" clip-rule="evenodd" d="M23.8253 9.42672C24.682 9.65737 25.3574 10.3328 25.5881 11.1895C26.0164 12.7546 25.9999 16.0165 25.9999 16.0165C25.9999 16.0165 25.9999 19.2619 25.5881 20.827C25.3574 21.6837 24.682 22.3591 23.8253 22.5898C22.2602 23.0016 16 23.0016 16 23.0016C16 23.0016 9.75616 23.0016 8.17462 22.5733C7.31795 22.3427 6.6425 21.6672 6.41186 20.8105C6 19.2619 6 16 6 16C6 16 6 12.7546 6.41186 11.1895C6.6425 10.3328 7.33443 9.64089 8.17462 9.41025C9.73969 8.99839 16 8.99839 16 8.99839C16 8.99839 22.2602 8.99839 23.8253 9.42672ZM19.2122 15.9999L14.0063 18.9983V13.0016L19.2122 15.9999Z" fill="#123D4B"/>
</svg>
